<?xml version="1.0" encoding="utf-8"?>
<!-- Generator: Adobe Illustrator 25.4.1, SVG Export Plug-In . SVG Version: 6.00 Build 0)  -->
<svg version="1.1" id="Layer_1" xmlns="http://www.w3.org/2000/svg" xmlns:xlink="http://www.w3.org/1999/xlink" x="0px" y="0px"
	 viewBox="0 0 602.6 234.3" style="enable-background:new 0 0 602.6 234.3;" xml:space="preserve">
<style type="text/css">
	.st0{fill:url(#SVGID_1_);stroke:url(#SVGID_00000121964331437459828490000018345687684695581575_);stroke-miterlimit:10;}
</style>
<linearGradient id="SVGID_1_" gradientUnits="userSpaceOnUse" x1="59.95" y1="117.15" x2="542.65" y2="117.15">
	<stop  offset="0" style="stop-color:#7950F2"/>
	<stop  offset="1" style="stop-color:#F783AC"/>
</linearGradient>
<linearGradient id="SVGID_00000041280274064057957290000017496422493172321411_" gradientUnits="userSpaceOnUse" x1="59.45" y1="117.15" x2="543.2966" y2="117.15">
	<stop  offset="0" style="stop-color:#7950F2"/>
	<stop  offset="1" style="stop-color:#F783AC"/>
</linearGradient>
<path style="fill:url(#SVGID_1_);stroke:url(#SVGID_00000041280274064057957290000017496422493172321411_);stroke-miterlimit:10;" d="
	M124.8,65.8c31.8,0,57.7,25.9,57.7,57.7c0,20.5-10.7,38.5-26.8,48.7c0.2,0.2,0.4,0.3,0.7,0.4c16.2-10.4,26.9-28.5,26.9-49.1
	c0-32.2-26.2-58.4-58.4-58.4c-20.7,0-38.8,10.8-49.2,27c0.1,0.2,0.3,0.4,0.4,0.7C86.2,76.6,104.2,65.8,124.8,65.8z M124.8,181.1
	c-31.8,0-57.7-25.9-57.7-57.7c0-11,3.5-21.9,8.9-30.7c-0.1-0.2-0.3-0.4-0.4-0.7c-5.5,8.9-9.2,20.1-9.2,31.4
	c0,32.2,26.2,58.4,58.4,58.4c11.3,0,22.5-3.7,31.5-9.3c-0.2-0.1-0.4-0.3-0.7-0.4C146.9,177.6,135.9,181.1,124.8,181.1L124.8,181.1z
	 M395.5,87.6c-3.6-3.1-8.9-4.6-16-4.6h-15.6v60.3h4.4V119h11.2c3.3,0,6.3-0.4,8.9-1.3s4.9-2.1,6.7-3.8c1.8-1.6,3.3-3.5,4.3-5.7
	s1.5-4.6,1.5-7.3C400.9,95.1,399.1,90.7,395.5,87.6z M395.2,106.7c-0.8,1.8-1.9,3.3-3.4,4.6s-3.2,2.3-5.3,3.1
	c-2.1,0.7-4.5,1.1-7.1,1.1h-11.2V86.4h11.2c5.7,0,9.9,1.3,12.7,3.8s4.3,6.1,4.3,10.7C396.5,102.9,396.1,104.9,395.2,106.7z
	 M439.6,106.1c-1.6-1.9-3.7-3.4-6.1-4.4s-5.1-1.6-8.2-1.6s-5.8,0.5-8.2,1.6c-2.4,1-4.4,2.5-6.1,4.4s-2.9,4.2-3.8,6.9
	c-0.9,2.7-1.3,5.7-1.3,9s0.4,6.3,1.3,9s2.1,5,3.8,6.9c1.7,1.9,3.7,3.4,6.1,4.4s5.1,1.5,8.2,1.5s5.8-0.5,8.2-1.5s4.4-2.5,6.1-4.4
	c1.6-1.9,2.9-4.2,3.8-6.9c0.9-2.7,1.3-5.7,1.3-9s-0.4-6.3-1.3-9S441.2,108,439.6,106.1z M439.6,129.7c-0.6,2.3-1.6,4.2-2.8,5.9
	c-1.3,1.6-2.8,2.9-4.7,3.7c-1.9,0.9-4.1,1.3-6.6,1.3s-4.7-0.4-6.6-1.3c-1.9-0.9-3.5-2.1-4.7-3.7c-1.2-1.6-2.2-3.6-2.9-5.9
	c-0.6-2.3-1-4.9-1-7.7s0.3-5.4,1-7.7c0.6-2.3,1.6-4.3,2.9-5.9s2.8-2.9,4.7-3.8c1.9-0.9,4.1-1.3,6.6-1.3s4.7,0.4,6.6,1.3
	c1.9,0.9,3.5,2.1,4.7,3.8c1.3,1.6,2.2,3.6,2.8,5.9c0.6,2.3,0.9,4.9,0.9,7.7C440.5,124.9,440.2,127.4,439.6,129.7z M272.1,105
	c-1.5-1.6-3.3-2.8-5.3-3.6c-2-0.8-4.3-1.2-6.7-1.2c-3,0-5.7,0.5-8.1,1.6c-2.4,1.1-4.4,2.5-6,4.4c-1.6,1.9-2.9,4.1-3.8,6.7
	c-0.9,2.6-1.3,5.4-1.3,8.4c0,3.6,0.5,6.8,1.4,9.6c0.9,2.8,2.2,5.2,3.9,7.1c1.7,1.9,3.8,3.4,6.1,4.4c2.4,1,5,1.5,7.9,1.5
	c1.6,0,3.2-0.2,4.8-0.5s3.1-0.7,4.4-1.3c1.4-0.5,2.6-1.2,3.8-1.9c1.1-0.7,2-1.5,2.7-2.4l-1.1-1.4c-0.2-0.3-0.5-0.4-0.9-0.4
	c-0.3,0-0.7,0.2-1.4,0.7c-0.6,0.5-1.5,1-2.5,1.6c-1.1,0.6-2.4,1.1-3.9,1.6c-1.6,0.5-3.4,0.7-5.5,0.7c-2.4,0-4.5-0.4-6.5-1.2
	c-1.9-0.8-3.6-2.1-4.9-3.7c-1.4-1.6-2.4-3.7-3.2-6.1c-0.7-2.4-1.1-5.2-1.1-8.4v-0.8h30.9c0.4,0,0.7-0.1,0.9-0.3
	c0.2-0.2,0.3-0.7,0.3-1.3c0-3-0.4-5.6-1.3-7.9C274.8,108.5,273.5,106.6,272.1,105L272.1,105z M245.2,117.8c0.3-2.2,0.8-4.2,1.5-6
	c0.8-1.8,1.8-3.3,3-4.6c1.3-1.3,2.8-2.3,4.5-2.9c1.7-0.7,3.7-1,5.9-1c1.9,0,3.7,0.3,5.3,1c1.6,0.7,3,1.6,4.2,2.9
	c1.2,1.3,2.1,2.8,2.7,4.6c0.6,1.8,1,3.8,1,6.1L245.2,117.8L245.2,117.8z M305.2,100.1c-1.6,0-3.1,0.2-4.5,0.7s-2.6,1.2-3.7,2.2
	c-1.1,0.9-2.1,2.1-2.9,3.4c-0.8,1.4-1.6,2.9-2.2,4.6l-0.3-8.9c-0.1-0.5-0.2-0.8-0.4-1c-0.2-0.2-0.5-0.3-1-0.3H288v42.4h4.1v-27.4
	c0.6-1.9,1.3-3.6,2.1-5.1c0.8-1.5,1.6-2.7,2.6-3.7c1-1,2.1-1.7,3.4-2.2s2.7-0.7,4.4-0.7c1.1,0,2.1,0.1,2.8,0.3
	c0.7,0.2,1.2,0.3,1.6,0.3s0.7-0.2,0.8-0.7l0.3-2.8c-0.7-0.4-1.4-0.7-2.3-0.8C306.9,100.2,306,100.1,305.2,100.1L305.2,100.1z
	 M195.6,155.4c-0.2,0.1-0.3,0.3-0.2,0.5c7,13.8,8.4,24.4,3.8,29.1c-2,2-4.7,3-8.2,3c-8.9,0-21.7-6.5-34.7-15.3
	c-0.2,0.1-0.4,0.3-0.7,0.4c13.2,8.9,26.3,15.6,35.3,15.6c3.7,0,6.6-1.1,8.7-3.2c4.9-4.9,3.6-15.6-3.6-29.9
	C196,155.3,195.8,155.3,195.6,155.4L195.6,155.4z M152.2,129.5c-2.9,0-5.2,2.3-5.2,5.2s2.3,5.2,5.2,5.2s5.2-2.3,5.2-5.2
	C157.4,131.9,155.1,129.5,152.2,129.5z M152.2,139.2c-2.5,0-4.5-2-4.5-4.5s2-4.5,4.5-4.5s4.5,2,4.5,4.5S154.7,139.2,152.2,139.2z
	 M191.9,86.6h37.8l-38.4,53.6c-0.1,0.2-0.3,0.5-0.4,0.7c-0.1,0.2-0.1,0.5-0.1,0.8v1.6h44.4v-3.7h-38.6l38.3-53.4
	c0.4-0.6,0.6-1.2,0.6-1.7V83H192L191.9,86.6L191.9,86.6z M541.2,138.2c-0.2-0.3-0.5-0.4-0.7-0.4s-0.5,0.1-0.8,0.4s-0.8,0.6-1.3,1
	c-0.5,0.4-1.2,0.7-1.9,1c-0.7,0.3-1.6,0.4-2.6,0.4c-0.8,0-1.6-0.1-2.3-0.4s-1.3-0.7-1.9-1.2c-0.5-0.5-0.9-1.2-1.2-2.1
	c-0.3-0.8-0.4-1.8-0.4-3v-28.7h13.4v-3h-13.4V86h-1.9c-0.3,0-0.6,0.1-0.7,0.3c-0.2,0.2-0.3,0.4-0.3,0.7l-1,15.2l-7.2,0.5v1.6
	c0,0.3,0.1,0.6,0.3,0.7c0.2,0.2,0.5,0.3,0.8,0.3h6.1v29c0,3.3,0.8,5.8,2.4,7.4c1.6,1.6,3.8,2.4,6.7,2.4c1.8,0,3.5-0.4,5.2-1.1
	s3-1.7,4.1-2.9C542.7,140.1,541.2,138.2,541.2,138.2z M505,104.5c-1.2-1.4-2.6-2.5-4.4-3.2c-1.8-0.7-3.8-1.1-6.2-1.1
	c-3.2,0-6,0.7-8.6,2.2s-4.8,3.4-6.8,5.9l-0.4-6.4c-0.1-0.7-0.5-1.1-1.2-1.1h-2.3v42.4h4.1v-31.8c1.9-2.5,4-4.5,6.4-5.9
	s5-2.1,7.7-2.1c3.7,0,6.5,1.1,8.3,3.4s2.7,5.4,2.7,9.4v27.1h4.1v-27.1c0-2.5-0.3-4.7-0.9-6.7C507.1,107.5,506.2,105.9,505,104.5
	L505,104.5z M346.8,106.1c-1.6-1.9-3.7-3.4-6.1-4.4s-5.1-1.6-8.2-1.6c-3,0-5.8,0.5-8.2,1.6c-2.4,1-4.4,2.5-6.1,4.4s-2.9,4.2-3.8,6.9
	s-1.3,5.7-1.3,9s0.4,6.3,1.3,9c0.9,2.7,2.1,5,3.8,6.9c1.7,1.9,3.7,3.4,6.1,4.4s5.1,1.5,8.2,1.5c3,0,5.8-0.5,8.2-1.5
	c2.4-1,4.4-2.5,6.1-4.4c1.6-1.9,2.9-4.2,3.8-6.9c0.9-2.7,1.3-5.7,1.3-9s-0.4-6.3-1.3-9S348.3,108,346.8,106.1z M346.6,129.7
	c-0.6,2.3-1.6,4.2-2.8,5.9c-1.3,1.6-2.8,2.9-4.7,3.7c-1.9,0.9-4.1,1.3-6.6,1.3s-4.7-0.4-6.6-1.3c-1.9-0.9-3.5-2.1-4.7-3.7
	c-1.3-1.6-2.2-3.6-2.9-5.9s-1-4.9-1-7.7s0.3-5.4,1-7.7c0.6-2.3,1.6-4.3,2.9-5.9s2.8-2.9,4.7-3.8c1.9-0.9,4.1-1.3,6.6-1.3
	s4.7,0.4,6.6,1.3c1.9,0.9,3.5,2.1,4.7,3.8c1.3,1.6,2.2,3.6,2.8,5.9c0.6,2.3,0.9,4.9,0.9,7.7C347.6,124.9,347.2,127.4,346.6,129.7z
	 M456.6,100.8h4v42.4h-4C456.6,143.2,456.6,100.8,456.6,100.8z M60.7,56.8c0-3.4,0.9-5.9,2.6-7.7c4.7-4.7,15.3-3.3,29.1,3.8
	c0.2,0.1,0.4,0,0.5-0.2c0.1-0.2,0-0.4-0.2-0.5c-14.3-7.3-24.9-8.6-29.9-3.6C61,50.4,60,53.2,60,56.8c0,8.6,5.6,21.4,15.2,36
	c0.1-0.2,0.3-0.4,0.4-0.7C66.2,77.8,60.7,65.2,60.7,56.8z M94.3,139.4c-2.8,0-5.1,2.3-5.1,5.1c0,2.8,2.3,5.1,5.1,5.1
	c2.8,0,5.1-2.3,5.1-5.1C99.4,141.7,97.1,139.4,94.3,139.4z M94.3,148.9c-2.4,0-4.4-2-4.4-4.4c0-2.4,2-4.4,4.4-4.4s4.4,2,4.4,4.4
	C98.7,146.9,96.7,148.9,94.3,148.9z M75.6,92.1c-0.1,0.2-0.3,0.4-0.4,0.7c9,13.6,21.9,29.4,36.5,43.9c9.4,9.4,27.1,24.9,44,36.4
	c0.2-0.1,0.4-0.3,0.7-0.4c-16.9-11.5-34.7-27-44.1-36.5C97.6,121.5,84.6,105.7,75.6,92.1L75.6,92.1z M131.2,94.1
	c-5.5,0-10,4.5-10,10s4.5,10,10,10c5.5,0,10-4.5,10-10S136.8,94.1,131.2,94.1z M131.2,113.4c-5.1,0-9.3-4.2-9.3-9.3
	c0-5.1,4.2-9.3,9.3-9.3c5.1,0,9.3,4.2,9.3,9.3C140.6,109.2,136.4,113.4,131.2,113.4z M461.4,83.5c-0.3-0.3-0.7-0.6-1.2-0.8
	c-0.5-0.2-0.9-0.3-1.5-0.3c-0.5,0-1,0.1-1.4,0.3c-0.5,0.2-0.9,0.5-1.2,0.8c-0.3,0.3-0.6,0.7-0.8,1.2s-0.3,1-0.3,1.5s0.1,1,0.3,1.4
	c0.2,0.4,0.5,0.8,0.8,1.2c0.3,0.3,0.7,0.6,1.2,0.8c0.5,0.2,0.9,0.3,1.4,0.3s1-0.1,1.5-0.3c0.5-0.2,0.9-0.5,1.2-0.8
	c0.3-0.3,0.6-0.7,0.8-1.2c0.2-0.4,0.3-0.9,0.3-1.4s-0.1-1-0.3-1.5C461.9,84.3,461.6,83.9,461.4,83.5z"/>
</svg>
