<?xml version="1.0" standalone="no"?>
<!DOCTYPE svg PUBLIC "-//W3C//DTD SVG 20010904//EN"
 "http://www.w3.org/TR/2001/REC-SVG-20010904/DTD/svg10.dtd">
<svg version="1.0" xmlns="http://www.w3.org/2000/svg"
 width="620.000000pt" height="620.000000pt" viewBox="0 0 620.000000 620.000000"
 preserveAspectRatio="xMidYMid meet">
<metadata>
Created by potrace 1.14, written by Peter Selinger 2001-2017
</metadata>
<g transform="translate(0.000000,620.000000) scale(0.100000,-0.100000)"
fill="#000000" stroke="none">
<path d="M528 5964 c-472 -90 -455 -667 48 -1545 48 -85 111 -191 140 -235 79
-124 77 -118 55 -156 -23 -38 -104 -201 -133 -268 -66 -149 -149 -437 -163
-566 -4 -32 -9 -62 -11 -65 -7 -12 -18 -191 -18 -299 0 -147 14 -299 39 -435
26 -135 113 -424 136 -450 5 -5 9 -15 9 -22 0 -26 121 -256 193 -366 156 -238
322 -418 552 -600 261 -206 636 -374 986 -442 140 -28 264 -39 434 -39 250 0
434 26 675 98 164 48 262 88 439 178 l134 69 36 -24 c456 -302 898 -518 1166
-571 17 -4 41 -9 55 -12 62 -14 237 -13 299 2 225 52 349 220 349 473 0 56 -7
134 -14 174 -8 39 -17 85 -20 101 -2 16 -7 33 -10 38 -3 5 -7 19 -9 31 -9 58
-102 299 -171 440 -44 91 -67 114 -91 95 -19 -15 -16 -32 16 -96 63 -126 145
-331 181 -457 49 -171 60 -390 26 -496 -33 -105 -129 -198 -236 -230 -69 -21
-231 -20 -339 1 -88 18 -236 63 -296 90 -11 5 -49 21 -85 36 -213 87 -809 432
-783 454 4 4 46 34 93 68 171 122 317 265 485 474 68 84 219 337 252 421 9 23
19 44 22 47 3 3 14 28 25 55 10 28 30 79 43 115 14 36 27 73 29 83 2 9 6 26 8
37 3 11 7 24 10 28 8 13 56 239 62 292 3 25 8 58 11 75 8 45 9 461 1 535 -16
147 -89 453 -132 555 -7 17 -28 66 -47 110 -110 263 -284 521 -494 730 -152
153 -255 236 -401 327 -38 23 -71 45 -74 48 -16 19 -287 146 -394 185 -125 45
-329 100 -410 110 -23 3 -52 7 -66 10 -123 25 -532 25 -660 0 -25 -5 -90 -15
-125 -20 -42 -6 -223 -55 -305 -83 -350 -120 -641 -302 -910 -572 -133 -133
-159 -163 -243 -278 l-61 -84 -30 38 c-17 21 -31 40 -31 43 0 3 -8 17 -17 31
-40 63 -85 136 -91 150 -4 8 -23 42 -42 75 -90 153 -195 373 -256 534 -46 119
-62 173 -94 319 -20 88 -20 234 0 327 10 45 54 121 90 154 176 160 557 114
1055 -128 95 -46 105 -48 118 -25 17 30 1 49 -66 80 -37 17 -89 42 -117 55
-27 13 -52 24 -55 24 -3 1 -23 9 -45 19 -98 44 -321 109 -445 131 -68 12 -216
12 -282 -1z m2512 -847 c14 -3 50 -8 80 -12 30 -4 62 -8 70 -10 8 -1 31 -5 50
-9 323 -55 697 -227 991 -457 94 -74 253 -228 314 -304 22 -28 45 -54 51 -60
20 -18 112 -149 162 -231 151 -243 270 -561 308 -819 2 -16 7 -43 10 -60 25
-145 25 -511 -1 -650 -3 -16 -10 -55 -15 -85 -10 -56 -16 -82 -26 -123 -3 -12
-7 -33 -10 -46 -3 -13 -9 -32 -15 -43 -5 -10 -8 -18 -5 -18 5 0 -45 -142 -84
-240 -129 -323 -394 -673 -685 -903 -74 -58 -68 -54 -137 -101 l-57 -38 -98
67 c-76 53 -413 302 -468 347 -5 4 -75 61 -155 125 -80 65 -150 122 -156 128
-6 5 -28 24 -49 40 -21 17 -43 35 -49 40 -6 6 -38 33 -71 60 -32 28 -66 57
-75 65 -14 13 -79 70 -160 140 -111 96 -242 221 -460 440 -247 246 -305 307
-455 475 -38 44 -79 88 -90 100 -11 12 -40 45 -65 75 -25 30 -59 70 -76 90
-26 29 -109 128 -167 200 -7 8 -49 60 -93 115 -85 105 -349 459 -399 535 -17
25 -33 47 -36 50 -3 3 -14 19 -24 37 l-19 32 29 43 c31 45 114 156 149 198 55
64 240 244 311 302 77 63 258 188 272 188 3 0 14 6 22 14 48 43 400 196 507
221 11 2 51 13 90 24 40 11 85 22 100 24 126 22 178 29 234 33 36 3 66 7 68 9
5 4 355 -3 382 -8z m-2135 -1219 c27 -40 82 -117 122 -171 40 -54 73 -102 73
-107 0 -5 4 -10 8 -12 4 -1 30 -32 57 -68 27 -36 54 -70 60 -77 5 -7 15 -18
20 -25 84 -107 161 -204 165 -208 3 -3 25 -30 50 -60 25 -30 47 -57 50 -60 3
-3 32 -36 65 -75 32 -38 70 -83 85 -98 53 -59 66 -74 104 -117 39 -44 174
-193 249 -274 152 -162 441 -446 607 -596 77 -69 99 -89 180 -160 74 -65 134
-116 235 -200 61 -51 127 -107 148 -126 21 -19 40 -34 44 -34 3 0 22 -15 42
-32 47 -41 71 -61 151 -123 36 -27 67 -52 70 -55 16 -17 321 -240 329 -240 5
0 11 -4 13 -8 2 -4 33 -30 71 -56 37 -26 67 -50 67 -52 0 -3 -63 -36 -139 -73
-225 -110 -475 -189 -711 -226 -206 -32 -508 -26 -725 15 -27 5 -64 12 -80 15
-111 18 -360 107 -520 185 -295 145 -557 355 -773 620 -29 36 -60 73 -68 83
-8 9 -14 19 -14 20 0 2 -28 46 -62 98 -89 134 -178 316 -232 474 -16 44 -31
87 -34 95 -3 8 -6 20 -7 25 -2 6 -12 46 -24 90 -20 78 -43 210 -57 330 -13
114 -7 421 10 512 3 11 7 44 11 74 4 30 9 57 11 61 3 4 7 20 8 35 19 144 186
582 259 681 13 17 24 7 82 -80z"/>
<path d="M2989 4025 c-3 -2 -16 -6 -29 -8 -52 -10 -142 -61 -190 -109 -50 -50
-106 -149 -118 -209 -10 -53 -6 -153 8 -206 32 -111 118 -212 229 -265 62 -31
72 -33 176 -33 98 0 116 3 167 27 112 52 186 131 228 243 75 201 -20 432 -216
525 -58 28 -81 33 -159 36 -51 2 -94 2 -96 -1z m121 -70 c247 -27 386 -314
254 -527 -24 -40 -88 -108 -101 -108 -2 0 -17 -8 -31 -18 -37 -25 -104 -43
-162 -44 -274 -2 -449 304 -304 534 30 47 88 104 129 125 37 20 136 51 150 47
6 -1 35 -5 65 -9z"/>
<path d="M3810 2590 c-217 -111 -147 -431 95 -434 133 -2 230 96 228 230 -1
95 -54 174 -143 211 -41 17 -141 13 -180 -7z m177 -76 c52 -34 73 -71 73 -129
0 -57 -19 -96 -66 -132 -30 -22 -46 -27 -90 -27 -124 2 -195 131 -130 238 46
76 138 98 213 50z"/>
<path d="M1545 2210 c-106 -16 -178 -99 -189 -216 -3 -36 26 -119 52 -149 116
-136 344 -86 388 85 41 162 -86 304 -251 280z m97 -80 c112 -46 124 -211 20
-272 -83 -49 -202 -8 -229 80 -8 25 -8 35 -4 88 0 11 17 39 36 61 48 56 110
71 177 43z"/>
</g>
</svg>
